<svg xmlns="http://www.w3.org/2000/svg" xmlns:xlink="http://www.w3.org/1999/xlink" id="&#x421;&#x43B;&#x43E;&#x439;_1" x="0px" y="0px" viewBox="0 0 410 181" style="enable-background:new 0 0 410 181;" xml:space="preserve"><style type="text/css">	.st0{fill:#2D57C8;}	.st1{fill:#F2F2F2;}</style><path class="st0" d="M0.6,180.9h13.4c18-1.4,35.7-5.9,52.1-13.3c8.4-3.8,16.3-8.3,23.8-13.5l0,0l0,0c7.5,5.3,15.5,9.8,23.8,13.5 c16.5,7.4,34.1,11.9,52.1,13.3H190c18-1.4,35.7-5.9,52.1-13.3c8.4-3.8,16.3-8.3,23.8-13.5l0,0l0,0c7.5,5.3,15.5,9.8,23.8,13.5 c16.5,7.4,34.1,11.9,52.1,13.3h13.1L409.9-0.3H0.3L0.6,180.9z"></path><path class="st1" d="M35.4,108.8V59h14.7v22.5L67.3,59H84L64.9,83.4L85,108.8H68.3L50.1,85.3v23.4H35.4z"></path><path class="st1" d="M129.1,102.5c-2.5,2.4-5.4,4.3-8.6,5.6c-3.2,1.3-6.6,1.8-10.1,1.7c-3.4,0.1-6.9-0.4-10.1-1.7 c-3.2-1.3-6.1-3.2-8.6-5.6c-2.4-2.4-4.4-5.3-5.6-8.5c-1.3-3.2-1.8-6.6-1.7-10.1c-0.1-3.4,0.4-6.9,1.7-10.1c1.3-3.2,3.2-6.1,5.6-8.5 s5.4-4.3,8.6-5.6c3.2-1.3,6.7-1.8,10.1-1.7c3.4-0.1,6.9,0.4,10.1,1.7c3.2,1.3,6.1,3.2,8.6,5.6s4.4,5.3,5.6,8.5 c1.3,3.2,1.8,6.6,1.7,10.1c0.1,3.4-0.5,6.9-1.7,10.1C133.5,97.1,131.6,100,129.1,102.5z M102.4,92.7c1.1,1.1,2.3,1.9,3.7,2.5 c1.4,0.6,2.9,0.9,4.4,0.9c1.5,0,3-0.3,4.4-0.9c1.4-0.6,2.6-1.4,3.7-2.5c2.2-2.4,3.3-5.6,3.2-8.8c0.1-3.2-1-6.4-3.2-8.8 c-1.1-1.1-2.3-1.9-3.7-2.5c-1.4-0.6-2.9-0.9-4.4-0.9c-1.5,0-3,0.3-4.4,0.9c-1.4,0.6-2.6,1.4-3.7,2.5c-2.2,2.4-3.3,5.6-3.2,8.8 C99,87.1,100.2,90.3,102.4,92.7z"></path><path class="st1" d="M145.8,108.8V59h28.9c4.2-0.2,8.2,1.2,11.4,3.9c1.4,1.2,2.5,2.7,3.2,4.4c0.7,1.7,1.1,3.5,1,5.4 c0.1,3-0.9,5.9-2.9,8.1c-0.8,0.9-1.8,1.6-2.9,2.1v0.5c1.3,0.7,2.4,1.5,3.4,2.5c2.2,2.4,3.4,5.5,3.4,8.7c0,1.9-0.3,3.8-1.1,5.5 c-0.8,1.7-1.9,3.3-3.3,4.6c-3.1,2.8-7.2,4.3-11.3,4.1H145.8z M160.5,78h10.3c3.3,0,4.9-1.5,4.9-4.4s-1.6-4.4-4.9-4.4h-10.3V78z  M160.5,98.5h10.8c1.4,0.1,2.9-0.4,4-1.3c0.9-1,1.4-2.2,1.4-3.6c0-1.3-0.5-2.6-1.4-3.6c-1.1-0.9-2.5-1.4-4-1.3h-10.8V98.5z"></path><path class="st1" d="M229.1,108.8V92.2c-1.1,0.7-2.2,1.3-3.4,1.8c-3,1.1-6.1,1.7-9.3,1.7c-2.4,0.1-4.8-0.2-7-1.1 c-2.2-0.9-4.3-2.2-5.9-3.9c-3.1-3.4-4.7-8.2-4.7-14.5V59h14.7v15.1c0,1,0.1,2,0.5,2.9c0.4,0.9,0.9,1.7,1.6,2.4 c0.8,0.7,1.7,1.2,2.7,1.6c1,0.3,2,0.5,3.1,0.4c2.1,0.1,4.1-0.3,6-1.2c0.7-0.3,1.4-0.7,1.9-1.3V59h14.7v49.8H229.1z"></path><path class="st1" d="M288.4,93.6h14.7c-2.2,5.7-6.3,10.4-11.6,13.4c-5.3,3-11.6,3.9-17.5,2.8c-6-1.2-11.4-4.4-15.2-9.2 c-3.8-4.7-5.8-10.7-5.7-16.8c-0.1-3.4,0.4-6.9,1.7-10.1c1.3-3.2,3.2-6.1,5.6-8.5c2.4-2.4,5.4-4.3,8.6-5.6c3.2-1.3,6.7-1.8,10.1-1.7 c3.4-0.1,6.7,0.5,9.9,1.7c3.1,1.2,6,3.1,8.4,5.4c2.4,2.3,4.2,5.1,5.5,8.1c1.2,3.1,1.8,6.3,1.8,9.6c0,1.2-0.1,2.5-0.3,3.7l-0.2,1.2 h-36.3c0.2,2.8,1.4,5.4,3.5,7.4c2.1,1.9,4.9,3,7.8,2.9c2.5,0,5-0.7,7.1-2.1C287.1,95.3,287.8,94.5,288.4,93.6z M267.9,79h22.6 c-1.4-6.5-5.2-9.8-11.3-9.8C273.1,69.2,269.3,72.5,267.9,79z"></path><path class="st1" d="M313.9,108.8V59h36.3v13.7h-21.6v36.1H313.9z"></path></svg>